<svg width="20" height="20" viewBox="0 0 20 20" fill="none" xmlns="http://www.w3.org/2000/svg">
<path d="M14.4503 4.54984C14.2525 4.54984 14.0592 4.60849 13.8948 4.71837C13.7303 4.82825 13.6021 4.98443 13.5264 5.16715C13.4508 5.34988 13.431 5.55095 13.4695 5.74493C13.5081 5.93891 13.6034 6.11709 13.7432 6.25694C13.8831 6.3968 14.0613 6.49204 14.2552 6.53062C14.4492 6.56921 14.6503 6.5494 14.833 6.47372C15.0157 6.39803 15.1719 6.26986 15.2818 6.10541C15.3917 5.94096 15.4503 5.74762 15.4503 5.54984C15.4503 5.28462 15.345 5.03027 15.1574 4.84273C14.9699 4.65519 14.7155 4.54984 14.4503 4.54984ZM18.2837 6.5665C18.2675 5.87509 18.138 5.19101 17.9003 4.5415C17.6884 3.98578 17.3586 3.48257 16.9337 3.0665C16.521 2.63936 16.0166 2.31165 15.4587 2.10817C14.8109 1.8633 14.126 1.73085 13.4337 1.7165C12.5503 1.6665 12.267 1.6665 10.0003 1.6665C7.73366 1.6665 7.45033 1.6665 6.56699 1.7165C5.87462 1.73085 5.18978 1.8633 4.54199 2.10817C3.98506 2.31371 3.4811 2.64114 3.06699 3.0665C2.63985 3.47915 2.31214 3.98354 2.10866 4.5415C1.86379 5.18929 1.73133 5.87413 1.71699 6.5665C1.66699 7.44984 1.66699 7.73317 1.66699 9.99984C1.66699 12.2665 1.66699 12.5498 1.71699 13.4332C1.73133 14.1255 1.86379 14.8104 2.10866 15.4582C2.31214 16.0161 2.63985 16.5205 3.06699 16.9332C3.4811 17.3585 3.98506 17.686 4.54199 17.8915C5.18978 18.1364 5.87462 18.2688 6.56699 18.2832C7.45033 18.3332 7.73366 18.3332 10.0003 18.3332C12.267 18.3332 12.5503 18.3332 13.4337 18.2832C14.126 18.2688 14.8109 18.1364 15.4587 17.8915C16.0166 17.688 16.521 17.3603 16.9337 16.9332C17.3605 16.5187 17.6906 16.015 17.9003 15.4582C18.138 14.8087 18.2675 14.1246 18.2837 13.4332C18.2837 12.5498 18.3337 12.2665 18.3337 9.99984C18.3337 7.73317 18.3337 7.44984 18.2837 6.5665ZM16.7837 13.3332C16.7776 13.8621 16.6818 14.3863 16.5003 14.8832C16.3673 15.2458 16.1536 15.5735 15.8753 15.8415C15.605 16.1169 15.278 16.3302 14.917 16.4665C14.4201 16.648 13.896 16.7438 13.367 16.7498C12.5337 16.7915 12.2253 16.7998 10.0337 16.7998C7.84199 16.7998 7.53366 16.7998 6.70033 16.7498C6.15107 16.7601 5.60415 16.6755 5.08366 16.4998C4.73848 16.3566 4.42646 16.1438 4.16699 15.8748C3.8904 15.6071 3.67936 15.2792 3.55033 14.9165C3.34687 14.4125 3.23403 13.8765 3.21699 13.3332C3.21699 12.4998 3.16699 12.1915 3.16699 9.99984C3.16699 7.80817 3.16699 7.49984 3.21699 6.6665C3.22073 6.12572 3.31945 5.58979 3.50866 5.08317C3.65536 4.73143 3.88055 4.41789 4.16699 4.1665C4.42017 3.87998 4.73307 3.65242 5.08366 3.49984C5.59162 3.31654 6.12699 3.22074 6.66699 3.2165C7.50033 3.2165 7.80866 3.1665 10.0003 3.1665C12.192 3.1665 12.5003 3.1665 13.3337 3.2165C13.8626 3.22257 14.3867 3.31838 14.8837 3.49984C15.2624 3.64038 15.6022 3.86888 15.8753 4.1665C16.1484 4.42249 16.3618 4.73545 16.5003 5.08317C16.6855 5.59062 16.7814 6.12632 16.7837 6.6665C16.8253 7.49984 16.8337 7.80817 16.8337 9.99984C16.8337 12.1915 16.8253 12.4998 16.7837 13.3332ZM10.0003 5.72484C9.15517 5.72648 8.32946 5.97861 7.62754 6.44935C6.92561 6.9201 6.37897 7.58833 6.05669 8.36963C5.7344 9.15093 5.65093 10.0102 5.81682 10.8389C5.98271 11.6677 6.39052 12.4286 6.98872 13.0257C7.58692 13.6227 8.34867 14.029 9.17771 14.1933C10.0067 14.3576 10.8659 14.2724 11.6465 13.9486C12.4272 13.6248 13.0944 13.0769 13.5638 12.374C14.0331 11.6712 14.2837 10.845 14.2837 9.99984C14.2848 9.43742 14.1747 8.88034 13.9597 8.36063C13.7447 7.84093 13.4291 7.36884 13.031 6.97155C12.633 6.57425 12.1603 6.25957 11.6402 6.04561C11.12 5.83165 10.5627 5.72264 10.0003 5.72484ZM10.0003 12.7748C9.45148 12.7748 8.91496 12.6121 8.45862 12.3072C8.00227 12.0022 7.64659 11.5688 7.43656 11.0618C7.22653 10.5547 7.17157 9.99676 7.27865 9.45846C7.38572 8.92016 7.65001 8.42571 8.0381 8.03762C8.42619 7.64952 8.92065 7.38523 9.45895 7.27816C9.99725 7.17108 10.5552 7.22604 11.0623 7.43607C11.5693 7.6461 12.0027 8.00178 12.3077 8.45813C12.6126 8.91448 12.7753 9.45099 12.7753 9.99984C12.7753 10.3643 12.7035 10.7251 12.5641 11.0618C12.4246 11.3985 12.2202 11.7044 11.9625 11.9621C11.7049 12.2197 11.399 12.4241 11.0623 12.5636C10.7256 12.7031 10.3647 12.7748 10.0003 12.7748Z" fill="#DDDDDD"/>
</svg>
