<svg width="1440" height="249" viewBox="0 0 1440 249" fill="none" xmlns="http://www.w3.org/2000/svg">
<mask id="mask0_32_51" style="mask-type:alpha" maskUnits="userSpaceOnUse" x="0" y="0" width="1440" height="249">
<rect width="1440" height="249" fill="url(#paint0_linear_32_51)"/>
</mask>
<g mask="url(#mask0_32_51)">
<path fill-rule="evenodd" clip-rule="evenodd" d="M1888 30.6039L1800.38 64.3398C1712.75 98.0756 1537.5 165.547 1362.25 173.981C1187 182.415 1011.75 131.811 836.5 114.944C661.25 98.0756 486 114.944 310.75 148.679C135.5 182.415 -39.7501 233.019 -127.375 258.321L-215 283.623V-19.9999H-127.375C-39.7501 -19.9999 135.5 -19.9999 310.75 -19.9999C486 -19.9999 661.25 -19.9999 836.5 -19.9999C1011.75 -19.9999 1187 -19.9999 1362.25 -19.9999C1537.5 -19.9999 1712.75 -19.9999 1800.38 -19.9999H1888V30.6039Z" fill="white" fill-opacity="0.45"/>
<path fill-rule="evenodd" clip-rule="evenodd" d="M1444 22.6417L1380.42 51.0694C1316.83 79.4972 1189.67 136.353 1062.5 143.46C935.333 150.567 808.167 107.925 681 93.7111C553.833 79.4972 426.667 93.7111 299.5 122.139C172.333 150.567 45.1667 193.208 -18.4166 214.529L-82 235.85V-20H-18.4166C45.1667 -20 172.333 -20 299.5 -20C426.667 -20 553.833 -20 681 -20C808.167 -20 935.333 -20 1062.5 -20C1189.67 -20 1316.83 -20 1380.42 -20H1444V22.6417Z" fill="white" fill-opacity="0.45"/>
<path fill-rule="evenodd" clip-rule="evenodd" d="M-49 81.1511L-11 91.3532C28 101.555 104 121.96 181 121.96C257 121.96 334 101.555 410 84.5518C487 67.5483 563 53.9455 640 53.9455C716 53.9455 793 67.5483 869 87.9525C946 108.357 1022 135.562 1099 138.963C1175 142.364 1252 121.96 1328 128.761C1405 135.562 1481 169.994 1520 186.998L1558 204.001V-0.890839H1520C1481 -0.890839 1405 -0.890839 1328 -0.890839C1252 -0.890839 1175 -0.890839 1099 -0.890839C1022 -0.890839 946 -0.890839 869 -0.890839C793 -0.890839 716 -0.890839 640 -0.890839C563 -0.890839 487 -0.890839 410 -0.890839C334 -0.890839 257 -0.890839 181 -0.890839C104 -0.890839 28 -0.890839 -11 -0.890839H-49V81.1511Z" fill="white"/>
</g>
<defs>
<linearGradient id="paint0_linear_32_51" x1="720" y1="0" x2="720" y2="249" gradientUnits="userSpaceOnUse">
<stop stop-color="#31C2F7"/>
<stop offset="1" stop-color="#454BC7"/>
</linearGradient>
</defs>
</svg>
