<svg width="20" height="20" viewBox="0 0 20 20" fill="none" xmlns="http://www.w3.org/2000/svg">
<path d="M6.90866 16.878C13.1978 16.878 16.6378 11.6672 16.6378 7.14883C16.6378 7.00049 16.6378 6.85299 16.6278 6.70716C17.2971 6.2226 17.8748 5.62267 18.3337 4.93549C17.7095 5.21216 17.0475 5.39363 16.3695 5.47383C17.0834 5.04638 17.6176 4.37412 17.8728 3.58216C17.2017 3.9804 16.4676 4.2611 15.702 4.41216C15.1865 3.86363 14.5045 3.50036 13.7617 3.37858C13.0188 3.25681 12.2566 3.38333 11.5929 3.73855C10.9293 4.09378 10.4012 4.65789 10.0906 5.34354C9.77991 6.0292 9.70397 6.79815 9.87449 7.53133C8.51498 7.4632 7.18499 7.10993 5.97086 6.49447C4.75673 5.879 3.6856 5.0151 2.82699 3.95883C2.38976 4.7115 2.25582 5.60251 2.45244 6.45046C2.64906 7.29842 3.16146 8.03956 3.88533 8.52299C3.34137 8.50725 2.80919 8.36091 2.33366 8.09633V8.13966C2.33398 8.92907 2.60732 9.69408 3.10732 10.305C3.60733 10.9158 4.30322 11.335 5.07699 11.4913C4.5735 11.6286 4.04524 11.6485 3.53283 11.5497C3.75129 12.2292 4.17672 12.8235 4.7496 13.2493C5.32247 13.6752 6.01414 13.9113 6.72783 13.9247C6.01876 14.4818 5.20681 14.8937 4.33843 15.1368C3.47005 15.3799 2.56226 15.4494 1.66699 15.3413C3.23083 16.3449 5.05048 16.8772 6.90866 16.8747" fill="#DDDDDD"/>
</svg>
