<svg width="1440" height="153" viewBox="0 0 1440 153" fill="none" xmlns="http://www.w3.org/2000/svg">
<mask id="mask0_32_36" style="mask-type:alpha" maskUnits="userSpaceOnUse" x="0" y="0" width="1440" height="153">
<rect width="1440" height="153" fill="url(#paint0_linear_32_36)"/>
</mask>
<g mask="url(#mask0_32_36)">
<path fill-rule="evenodd" clip-rule="evenodd" d="M-350 183.333L-272.708 160.889C-195.417 138.444 -40.8333 93.5556 113.75 87.9444C268.333 82.3333 422.917 116 577.5 127.222C732.083 138.444 886.667 127.222 1041.25 104.778C1195.83 82.3333 1350.42 48.6667 1427.71 31.8333L1505 15V217H1427.71C1350.42 217 1195.83 217 1041.25 217C886.667 217 732.083 217 577.5 217C422.917 217 268.333 217 113.75 217C-40.8333 217 -195.417 217 -272.708 217H-350V183.333Z" fill="white"/>
<path fill-rule="evenodd" clip-rule="evenodd" d="M-528 144.333L-315.125 119.222C-102.25 94.1111 323.5 43.8889 749.25 37.6111C1175 31.3333 1600.75 69 2026.5 81.5555C2452.25 94.1111 2878 81.5555 3303.75 56.4444C3729.5 31.3333 4155.25 -6.33334 4368.12 -25.1667L4581 -44V182H4368.12C4155.25 182 3729.5 182 3303.75 182C2878 182 2452.25 182 2026.5 182C1600.75 182 1175 182 749.25 182C323.5 182 -102.25 182 -315.125 182H-528V144.333Z" fill="white" fill-opacity="0.45"/>
<path fill-rule="evenodd" clip-rule="evenodd" d="M-201 124L-121.667 99.3333C-42.3333 74.6667 116.333 25.3333 275 19.1667C433.667 13 592.333 50 751 62.3333C909.667 74.6667 1068.33 62.3333 1227 37.6667C1385.67 13 1544.33 -24 1623.67 -42.5L1703 -61V161H1623.67C1544.33 161 1385.67 161 1227 161C1068.33 161 909.667 161 751 161C592.333 161 433.667 161 275 161C116.333 161 -42.3333 161 -121.667 161H-201V124Z" fill="white" fill-opacity="0.72"/>
</g>
<defs>
<linearGradient id="paint0_linear_32_36" x1="720" y1="0" x2="720" y2="153" gradientUnits="userSpaceOnUse">
<stop stop-color="#31C2F7"/>
<stop offset="1" stop-color="#454BC7"/>
</linearGradient>
</defs>
</svg>
